<?xml version="1.0" encoding="UTF-8"?>
<svg
  xmlns="http://www.w3.org/2000/svg"
  width="64"
  height="64"
  viewBox="0 0 64 64"
  role="img"
  aria-labelledby="wisp-development-menubar-title wisp-development-menubar-description"
>
  <title id="wisp-development-menubar-title">Development Wisp menu-bar icon</title>
  <desc id="wisp-development-menubar-description">
    An alert dark Wisp glyph with a restrained lime highlight.
  </desc>
  <defs>
    <linearGradient id="wisp-development-menubar-body" x1=".2" y1=".08" x2=".8" y2=".92">
      <stop offset="0" stop-color="#302936"/>
      <stop offset=".5" stop-color="#17151b"/>
      <stop offset="1" stop-color="#09090c"/>
    </linearGradient>
    <linearGradient id="wisp-development-menubar-eye" x1="0" y1="0" x2="0" y2="1">
      <stop offset="0" stop-color="#fffef8"/>
      <stop offset="1" stop-color="#f5e5d5"/>
    </linearGradient>
  </defs>
  <path
    d="M27 5C28 12 32 15 39 14C43 13 46 11 49 8C48 15 49 19 54 23C60 28 60 38 56 44C52 49 46 51 39 50C45 53 50 56 55 60C48 58 41 58 35 61C24 64 13 58 10 48C7 38 11 30 18 24C23 20 26 14 27 5Z"
    fill="url(#wisp-development-menubar-body)"
  />
  <path
    d="M27 5C28 12 32 15 39 14C43 13 46 11 49 8C48 14 49 18 53 22"
    fill="none"
    stroke="#79e99a"
    stroke-width="1.8"
    stroke-linecap="round"
    opacity=".8"
  />
  <ellipse cx="26" cy="32.5" rx="4.8" ry="7" fill="url(#wisp-development-menubar-eye)"/>
  <ellipse cx="40" cy="32.5" rx="4.8" ry="7" fill="url(#wisp-development-menubar-eye)"/>
  <ellipse cx="27.2" cy="34" rx="1.7" ry="2.8" fill="#151318"/>
  <ellipse cx="38.8" cy="34" rx="1.7" ry="2.8" fill="#151318"/>
  <ellipse cx="33" cy="45" rx="2.8" ry="3.5" fill="url(#wisp-development-menubar-eye)"/>
</svg>
